<?xml version="1.0" encoding="UTF-8" standalone="no"?>
<svg
   xmlns:dc="http://purl.org/dc/elements/1.1/"
   xmlns:cc="http://creativecommons.org/ns#"
   xmlns:rdf="http://www.w3.org/1999/02/22-rdf-syntax-ns#"
   xmlns:svg="http://www.w3.org/2000/svg"
   xmlns="http://www.w3.org/2000/svg"
   viewBox="0 0 600 418.28"
   height="418.28"
   width="600"
   xml:space="preserve"
   id="svg2"
   version="1.1"><metadata
     id="metadata8"><rdf:RDF><cc:Work
         rdf:about=""><dc:format>image/svg+xml</dc:format><dc:type
           rdf:resource="http://purl.org/dc/dcmitype/StillImage" /></cc:Work></rdf:RDF></metadata><defs
     id="defs6" /><g
     transform="matrix(1.3333333,0,0,-1.3333333,0,418.28)"
     id="g10"><g
       transform="scale(0.1)"
       id="g12"><path
         id="path14"
         style="fill:#facf9f;fill-opacity:1;fill-rule:nonzero;stroke:none"
         d="m 4407.08,1439.11 h -92.81 v -46.42 h -92.82 v 185.89 h -46.12 v -92.74 h -46.7 v 92.74 h -46.2 v -92.74 h -46.61 v 92.74 h -46.23 v -92.74 h -46.58 v 92.74 h -46.23 v -325.06 h 46.23 v -185.69 h 232.32 v 139.27 h 46.12 v 46.42 h 46.69 v 46.43 h 46.13 v 46.41 h 46.71 v 46.33 h 92.81 v 46.42 h -46.71" /><path
         id="path16"
         style="fill:#fbcb3a;fill-opacity:1;fill-rule:nonzero;stroke:none"
         d="m 4082.43,928.551 h 46.1992 v 46.4297 H 4082.43 Z" /><path
         id="path18"
         style="fill:#7fc83d;fill-opacity:1;fill-rule:nonzero;stroke:none"
         d="m 4128.63,928.551 h -46.2 v 46.429 h 46.2 z m 0,92.859 H 3943.01 V 882.141 h 232.32 v 139.269 h -46.7" /><path
         id="path20"
         style="fill:#97d552;fill-opacity:1;fill-rule:nonzero;stroke:none"
         d="M 4128.63,835.699 H 3943.01 V 0 h 232.32 v 835.699 h -46.7" /><path
         id="path22"
         style="fill:#201e1d;fill-opacity:1;fill-rule:nonzero;stroke:none"
         d="m 3943.01,1532.26 v -46.42 h 46.58 v 92.74 h 46.23 v -92.74 h 46.61 v 92.74 h 46.2 v -92.74 h 46.7 v 92.74 h 46.12 v -185.89 h 92.82 v 46.42 h -46.13 V 1625 h -371.36 v -46.42 h 46.23 v -46.32" /><path
         id="path24"
         style="fill:#201e1d;fill-opacity:1;fill-rule:nonzero;stroke:none"
         d="m 4407.08,1439.11 h 46.71 v 46.73 h -139.52 v -46.73 h 92.81" /><path
         id="path26"
         style="fill:#201e1d;fill-opacity:1;fill-rule:nonzero;stroke:none"
         d="m 4453.79,1392.69 h 46.2109 v 46.418 H 4453.79 Z" /><path
         id="path28"
         style="fill:#201e1d;fill-opacity:1;fill-rule:nonzero;stroke:none"
         d="m 4360.98,1392.69 v -46.33 h 92.81 v 46.33 h -92.81" /><path
         id="path30"
         style="fill:#201e1d;fill-opacity:1;fill-rule:nonzero;stroke:none"
         d="m 3896.78,1346.36 v 232.22 h -46.71 v -325.06 h 46.71 v 92.84" /><path
         id="path32"
         style="fill:#201e1d;fill-opacity:1;fill-rule:nonzero;stroke:none"
         d="m 4314.27,1299.95 h 46.7109 v 46.4102 H 4314.27 Z" /><path
         id="path34"
         style="fill:#201e1d;fill-opacity:1;fill-rule:nonzero;stroke:none"
         d="m 4268.14,1253.52 h 46.1289 v 46.4297 H 4268.14 Z" /><path
         id="path36"
         style="fill:#201e1d;fill-opacity:1;fill-rule:nonzero;stroke:none"
         d="m 4221.45,1207.1 h 46.6914 v 46.418 H 4221.45 Z" /><path
         id="path38"
         style="fill:#201e1d;fill-opacity:1;fill-rule:nonzero;stroke:none"
         d="m 4175.33,974.98 v -92.839 h -232.32 v 139.269 h 232.32 z m 0,185.69 v -92.84 h -232.32 v 185.69 h -46.23 V 0 h 46.23 v 835.699 h 232.32 V 0 h 46.12 v 1207.1 h -46.12 v -46.43" /><path
         id="path40"
         style="fill:#ea4037;fill-opacity:1;fill-rule:nonzero;stroke:none"
         d="M 3469.76,1021.41 H 3284.01 V 882.141 h 232.34 v 139.269 h -46.59" /><path
         id="path42"
         style="fill:#facf9f;fill-opacity:1;fill-rule:nonzero;stroke:none"
         d="m 3376.94,1439.09 v 278.75 h -46.22 v -325.26 h 46.22 v 46.51" /><path
         id="path44"
         style="fill:#facf9f;fill-opacity:1;fill-rule:nonzero;stroke:none"
         d="m 3469.76,1485.84 v 92.73 h -46.22 v -139.48 h 46.22 v 46.75" /><path
         id="path46"
         style="fill:#facf9f;fill-opacity:1;fill-rule:nonzero;stroke:none"
         d="m 3423.54,1392.58 h -46.6 v -46.32 h -46.22 v -46.31 h -92.83 v 46.31 h -46.69 v -92.74 h 46.69 v -92.85 h 46.12 v -92.95 h 232.34 v 92.95 h 46.22 v 185.59 h -46.22 v 46.32 h -92.81" /><path
         id="path48"
         style="fill:#facf9f;fill-opacity:1;fill-rule:nonzero;stroke:none"
         d="m 3237.89,1392.58 v -46.32 h 92.83 v 46.32 h -46.71 v 46.51 h -46.12 v 46.75 h -92.81 v -139.58 h 46.12 v 46.32 h 46.69" /><path
         id="path50"
         style="fill:#facf9f;fill-opacity:1;fill-rule:nonzero;stroke:none"
         d="m 3284.01,1532.26 v 185.58 h -46.12 v -232 h 46.12 v 46.42" /><path
         id="path52"
         style="fill:#facf9f;fill-opacity:1;fill-rule:nonzero;stroke:none"
         d="m 3516.35,1532.26 v -139.68 h 46.22 v 139.68 h -46.22" /><path
         id="path54"
         style="fill:#f25547;fill-opacity:1;fill-rule:nonzero;stroke:none"
         d="M 3469.76,835.699 H 3284.01 V 0 h 232.34 v 835.699 h -46.59" /><path
         id="path56"
         style="fill:#201e1d;fill-opacity:1;fill-rule:nonzero;stroke:none"
         d="m 3191.2,1346.26 h 46.6914 v 46.3203 H 3191.2 Z" /><path
         id="path58"
         style="fill:#201e1d;fill-opacity:1;fill-rule:nonzero;stroke:none"
         d="m 3376.94,1624.89 v -232.31 h 139.41 v 139.68 h 46.22 v 46.31 h -92.81 v -139.48 h -46.22 v 139.48 h 46.22 v 46.32 h -46.22 v 92.95 h -46.6 v -92.95" /><path
         id="path60"
         style="fill:#201e1d;fill-opacity:1;fill-rule:nonzero;stroke:none"
         d="m 3562.57,1532.26 v -139.68 h -46.22 v -46.32 h 46.22 v -185.59 h 46.71 v 371.59 h -46.71" /><path
         id="path62"
         style="fill:#201e1d;fill-opacity:1;fill-rule:nonzero;stroke:none"
         d="m 3237.89,1253.52 h -46.69 v -92.85 h 46.69 v 92.85" /><path
         id="path64"
         style="fill:#201e1d;fill-opacity:1;fill-rule:nonzero;stroke:none"
         d="m 3145.08,1439.09 v 46.75 h -46.69 v -139.58 h 46.69 v 92.83" /><path
         id="path66"
         style="fill:#201e1d;fill-opacity:1;fill-rule:nonzero;stroke:none"
         d="m 3330.72,1346.26 h 46.2227 v 46.3203 H 3330.72 Z" /><path
         id="path68"
         style="fill:#201e1d;fill-opacity:1;fill-rule:nonzero;stroke:none"
         d="m 3237.89,1717.84 h 46.1211 v 46.332 H 3237.89 Z" /><path
         id="path70"
         style="fill:#201e1d;fill-opacity:1;fill-rule:nonzero;stroke:none"
         d="m 3284.01,1624.89 v -139.05 h -46.12 v -46.75 h 46.12 v -46.51 h 46.71 v 325.26 h -46.71 v -92.95" /><path
         id="path72"
         style="fill:#201e1d;fill-opacity:1;fill-rule:nonzero;stroke:none"
         d="m 3191.2,1346.26 h -46.12 v -92.74 h 46.12 v 92.74" /><path
         id="path74"
         style="fill:#201e1d;fill-opacity:1;fill-rule:nonzero;stroke:none"
         d="m 3330.72,1717.84 h 46.2227 v 46.332 H 3330.72 Z" /><path
         id="path76"
         style="fill:#201e1d;fill-opacity:1;fill-rule:nonzero;stroke:none"
         d="m 3516.35,974.98 v -92.839 h -232.34 v 139.269 h 232.34 z m 0,139.27 v -46.53 h -232.34 v 92.95 h -46.12 V 0 h 46.12 v 835.699 h 232.34 V 0 h 46.22 v 1160.67 h -46.22 v -46.42" /><path
         id="path78"
         style="fill:#201e1d;fill-opacity:1;fill-rule:nonzero;stroke:none"
         d="m 3237.89,1346.26 v -46.31 h 92.83 v 46.31 h -92.83" /><path
         id="path80"
         style="fill:#201e1d;fill-opacity:1;fill-rule:nonzero;stroke:none"
         d="m 3237.89,1485.84 v 232 h -46.69 v -185.58 h -46.12 v -46.42 h 92.81" /><path
         id="path82"
         style="fill:#56b3de;fill-opacity:1;fill-rule:nonzero;stroke:none"
         d="m 2718.09,928.551 h -46.23 v 46.429 h 46.23 z m 0,92.859 H 2486.23 V 882.141 h 278.44 v 139.269 h -46.58" /><path
         id="path84"
         style="fill:#201e1d;fill-opacity:1;fill-rule:nonzero;stroke:none"
         d="m 2346.7,1532.26 h 46.7 v 46.31 h -92.82 v -139.48 h 46.12 v 93.17" /><path
         id="path86"
         style="fill:#201e1d;fill-opacity:1;fill-rule:nonzero;stroke:none"
         d="m 2439.53,1485.84 v -46.75 h 46.7 v 325.18 h -46.7 v -232.01 h -46.13 v -46.42 h 46.13" /><path
         id="path88"
         style="fill:#201e1d;fill-opacity:1;fill-rule:nonzero;stroke:none"
         d="m 2439.53,1346.36 h -46.13 v -92.84 h 46.13 v 92.84" /><path
         id="path90"
         style="fill:#201e1d;fill-opacity:1;fill-rule:nonzero;stroke:none"
         d="m 2486.23,1764.27 h 46.1094 v 46.4219 H 2486.23 Z" /><path
         id="path92"
         style="fill:#fbcb3a;fill-opacity:1;fill-rule:nonzero;stroke:none"
         d="m 2671.86,928.551 h 46.2305 v 46.4297 H 2671.86 Z" /><path
         id="path94"
         style="fill:#201e1d;fill-opacity:1;fill-rule:nonzero;stroke:none"
         d="m 2532.34,1671.43 v -185.59 h 46.7 v 92.73 h 46.21 v -92.73 h 46.61 v 92.73 h 46.23 v -92.73 h 46.58 v 92.73 h 46.23 v 46.42 h -231.86 v 139.28 h -46.7 v -92.84" /><path
         id="path96"
         style="fill:#201e1d;fill-opacity:1;fill-rule:nonzero;stroke:none"
         d="m 2393.4,1439.09 h -46.7 v -92.73 h 46.7 v 92.73" /><path
         id="path98"
         style="fill:#201e1d;fill-opacity:1;fill-rule:nonzero;stroke:none"
         d="m 2810.9,1578.57 v -325.05 h 46.7 v 325.05 h -46.7" /><path
         id="path100"
         style="fill:#201e1d;fill-opacity:1;fill-rule:nonzero;stroke:none"
         d="m 2764.67,974.98 v -92.839 h -278.44 v 139.269 h 278.44 z m 0,232.12 v -139.27 h -278.44 v 185.69 h -46.7 V 0 h 46.7 v 835.699 h 278.44 V 0 h 46.23 v 1253.52 h -46.23 v -46.42" /><path
         id="path102"
         style="fill:#facf9f;fill-opacity:1;fill-rule:nonzero;stroke:none"
         d="m 2764.67,1578.57 v -92.73 h -46.58 v 92.73 h -46.23 v -92.73 h -46.61 v 92.73 h -46.21 v -92.73 h -46.7 v 278.43 h -46.11 v -325.18 h -46.7 v 46.75 h -46.13 v 46.42 h -46.7 v -93.17 h 46.7 v -92.73 h 46.13 v -92.84 h 46.7 v -185.69 h 278.44 v 185.69 h 46.23 v 325.05 h -46.23" /><path
         id="path104"
         style="fill:#68c8ed;fill-opacity:1;fill-rule:nonzero;stroke:none"
         d="M 2718.09,835.699 H 2486.23 V 0 h 278.44 v 835.699 h -46.58" /><path
         id="path106"
         style="fill:#facf9f;fill-opacity:1;fill-rule:nonzero;stroke:none"
         d="m 1966.87,1671.43 v -185.59 h -46.6 v 92.74 h -46.21 v -92.74 h -46.6 v 92.74 h -46.21 v -92.74 h -46.71 v 278.43 h -46.13 v -325.16 h -46.7 v 46.73 h -46.11 v 46.42 h -46.7 v -93.15 h 46.7 v -92.75 h 46.11 v -92.84 h 46.7 v -139.16 h 278.46 v 139.16 h 46.23 v 417.91 h -46.23" /><path
         id="path108"
         style="fill:#fbcb3a;fill-opacity:1;fill-rule:nonzero;stroke:none"
         d="m 1874.06,974.98 h 46.2109 v 46.4297 H 1874.06 Z" /><path
         id="path110"
         style="fill:#4dc193;fill-opacity:1;fill-rule:nonzero;stroke:none"
         d="m 1920.27,974.98 h -46.21 v 46.43 h 46.21 z m 0,92.85 H 1688.41 V 928.559 h 278.46 v 139.271 h -46.6" /><path
         id="path112"
         style="fill:#62c89f;fill-opacity:1;fill-rule:nonzero;stroke:none"
         d="M 1920.27,882.141 H 1688.41 V 0 h 278.46 v 882.141 h -46.6" /><path
         id="path114"
         style="fill:#201e1d;fill-opacity:1;fill-rule:nonzero;stroke:none"
         d="m 1688.41,1764.27 h 46.1289 v 46.4219 H 1688.41 Z" /><path
         id="path116"
         style="fill:#201e1d;fill-opacity:1;fill-rule:nonzero;stroke:none"
         d="m 1966.87,1671.43 h 46.2305 v 46.4297 H 1966.87 Z" /><path
         id="path118"
         style="fill:#201e1d;fill-opacity:1;fill-rule:nonzero;stroke:none"
         d="m 1734.54,1671.43 v -185.59 h 46.71 v 92.74 h 46.21 v -92.74 h 46.6 v 92.74 h 46.21 v -92.74 h 46.6 v 185.59 h -46.6 V 1625 h -139.02 v 139.27 h -46.71 v -92.84" /><path
         id="path120"
         style="fill:#201e1d;fill-opacity:1;fill-rule:nonzero;stroke:none"
         d="m 2013.1,1671.43 v -417.91 h 46.69 v 417.91 h -46.69" /><path
         id="path122"
         style="fill:#201e1d;fill-opacity:1;fill-rule:nonzero;stroke:none"
         d="m 1641.71,1485.84 v -46.73 h 46.7 v 325.16 h -46.7 v -232.01 h -46.11 v -46.42 h 46.11" /><path
         id="path124"
         style="fill:#201e1d;fill-opacity:1;fill-rule:nonzero;stroke:none"
         d="m 1548.9,1532.26 h 46.7 v 46.32 h -92.82 v -139.47 h 46.12 v 93.15" /><path
         id="path126"
         style="fill:#201e1d;fill-opacity:1;fill-rule:nonzero;stroke:none"
         d="m 1595.6,1439.11 h -46.7 v -92.75 h 46.7 v 92.75" /><path
         id="path128"
         style="fill:#201e1d;fill-opacity:1;fill-rule:nonzero;stroke:none"
         d="m 1641.71,1346.36 h -46.11 v -92.84 h 46.11 v 92.84" /><path
         id="path130"
         style="fill:#201e1d;fill-opacity:1;fill-rule:nonzero;stroke:none"
         d="m 1966.87,1021.41 v -92.851 h -278.46 v 139.271 h 278.46 z m 0,185.69 v -92.74 h -278.46 v 139.16 h -46.7 V 0 h 46.7 v 882.141 h 278.46 V 0 h 46.23 v 1253.52 h -46.23 v -46.42" /><path
         id="path132"
         style="fill:#facf9f;fill-opacity:1;fill-rule:nonzero;stroke:none"
         d="m 1169.08,1717.86 v -278.75 h -92.82 v 46.73 h -46.61 v -93.15 h -46.216 v -46.32 H 936.73 v -46.42 h -46.109 v -92.85 h 46.109 v -139.27 h 232.35 v 185.69 h 46.21 v 464.34 h -46.21" /><path
         id="path134"
         style="fill:#facf9f;fill-opacity:1;fill-rule:nonzero;stroke:none"
         d="m 1029.65,1578.58 v 46.43 h -46.216 v -92.75 h 46.216 v 46.32" /><path
         id="path136"
         style="fill:#facf9f;fill-opacity:1;fill-rule:nonzero;stroke:none"
         d="m 936.73,1578.58 v 185.69 h -46.109 v -278.43 h 46.109 v 92.74" /><path
         id="path138"
         style="fill:#facf9f;fill-opacity:1;fill-rule:nonzero;stroke:none"
         d="m 1122.47,1532.26 v 92.75 h -46.21 v -139.17 h 46.21 v 46.42" /><path
         id="path140"
         style="fill:#facf9f;fill-opacity:1;fill-rule:nonzero;stroke:none"
         d="m 936.73,1346.37 v 46.32 h 46.704 v 93.15 H 936.73 v -46.73 h -46.109 v -46.42 h -46.703 v -92.74 h 46.703 v 46.42 h 46.109" /><path
         id="path142"
         style="fill:#ffffff;fill-opacity:1;fill-rule:nonzero;stroke:none"
         d="m 1076.26,928.551 h 46.207 v 46.4297 h -46.207 z" /><path
         id="path144"
         style="fill:#ffffff;fill-opacity:1;fill-rule:nonzero;stroke:none"
         d="m 983.434,928.551 h 46.2148 v 46.4297 H 983.434 Z" /><path
         id="path146"
         style="fill:#f25547;fill-opacity:1;fill-rule:nonzero;stroke:none"
         d="m 1122.47,928.551 h -46.21 v 46.429 h 46.21 z m -139.036,0 v 46.429 h 46.216 v -46.429 z m 139.036,92.859 H 936.73 V 882.148 h 232.35 v 139.262 h -46.61" /><path
         id="path148"
         style="fill:#f3b52b;fill-opacity:1;fill-rule:nonzero;stroke:none"
         d="M 1122.47,835.719 H 936.73 V 0 h 232.35 v 835.719 h -46.61" /><path
         id="path150"
         style="fill:#201e1d;fill-opacity:1;fill-rule:nonzero;stroke:none"
         d="m 890.621,1764.27 h 46.1094 v 46.4219 H 890.621 Z" /><path
         id="path152"
         style="fill:#201e1d;fill-opacity:1;fill-rule:nonzero;stroke:none"
         d="m 1169.08,1717.86 h 46.2109 v 46.4102 H 1169.08 Z" /><path
         id="path154"
         style="fill:#201e1d;fill-opacity:1;fill-rule:nonzero;stroke:none"
         d="m 1215.29,1717.86 v -464.34 h 46.7 v 464.34 h -46.7" /><path
         id="path156"
         style="fill:#201e1d;fill-opacity:1;fill-rule:nonzero;stroke:none"
         d="m 1029.65,1625.01 v -92.75 h -46.216 v 92.75 z m -92.92,46.42 v -185.59 h 46.704 v -93.15 h 46.216 v 93.15 h 46.61 v 139.17 h 46.21 v -139.17 h -46.21 v -46.73 h 92.82 v 278.75 h -46.61 v -46.43 H 983.434 v 92.84 H 936.73 v -92.84" /><path
         id="path158"
         style="fill:#201e1d;fill-opacity:1;fill-rule:nonzero;stroke:none"
         d="m 890.621,1439.11 h 46.109 v 46.73 h -46.109 v 278.43 h -46.703 v -371.58 h 46.703 v 46.42" /><path
         id="path160"
         style="fill:#201e1d;fill-opacity:1;fill-rule:nonzero;stroke:none"
         d="m 936.73,1346.37 h 46.7031 v 46.3203 H 936.73 Z" /><path
         id="path162"
         style="fill:#201e1d;fill-opacity:1;fill-rule:nonzero;stroke:none"
         d="m 890.621,1299.95 h 46.1094 v 46.4219 H 890.621 Z" /><path
         id="path164"
         style="fill:#201e1d;fill-opacity:1;fill-rule:nonzero;stroke:none"
         d="m 890.621,1299.95 h -46.703 v 92.74 h -46.121 v -139.17 h 46.121 v -46.42 h 46.703 v 92.85" /><path
         id="path166"
         style="fill:#201e1d;fill-opacity:1;fill-rule:nonzero;stroke:none"
         d="M 1169.08,974.98 V 882.148 H 936.73 v 139.262 h 232.35 z m 0,232.12 V 1067.83 H 936.73 V 1207.1 H 890.621 V 0 h 46.109 v 835.719 h 232.35 V 0 h 46.21 v 1253.52 h -46.21 v -46.42" /><path
         id="path168"
         style="fill:#facf9f;fill-opacity:1;fill-rule:nonzero;stroke:none"
         d="m 464.086,1717.95 v -185.59 h -46.598 v 231.91 h -46.215 v -185.69 h -46.609 v 232.11 h -46.211 v -232.11 h -46.707 v 185.69 h -46.105 v -325.16 h 46.105 v -46.42 h 46.707 v -46.33 h 46.211 v -46.33 h -46.211 v 46.33 h -46.707 v 46.33 h -46.105 v 46.42 h -46.703 v 46.73 H 92.8125 v 46.52 H 46.1133 v -93.25 h 46.6992 v -92.75 h 46.1255 v -92.84 h 46.703 v -185.69 h 278.445 v 185.69 h 46.219 v 464.43 h -46.219" /><path
         id="path170"
         style="fill:#fbcb3a;fill-opacity:1;fill-rule:nonzero;stroke:none"
         d="m 371.273,928.469 h 46.2148 v 46.4023 H 371.273 Z" /><path
         id="path172"
         style="fill:#6d97d6;fill-opacity:1;fill-rule:nonzero;stroke:none"
         d="M 417.488,1021.51 H 185.641 v -46.42 h 278.445 v 46.42 h -46.598" /><path
         id="path174"
         style="fill:#6d97d6;fill-opacity:1;fill-rule:nonzero;stroke:none"
         d="m 417.488,928.469 h -46.215 v 46.402 H 185.641 v -92.84 h 278.445 v 92.84 h -46.598 v -46.402" /><path
         id="path176"
         style="fill:#5982cb;fill-opacity:1;fill-rule:nonzero;stroke:none"
         d="M 417.488,835.609 H 185.641 V 0 h 278.445 v 835.609 h -46.598" /><path
         id="path178"
         style="fill:#201e1d;fill-opacity:1;fill-rule:nonzero;stroke:none"
         d="m 324.664,1717.95 v -139.37 h 46.609 v 185.69 h 46.215 v 46.42 h -92.824 v -92.74" /><path
         id="path180"
         style="fill:#201e1d;fill-opacity:1;fill-rule:nonzero;stroke:none"
         d="m 510.305,1717.95 v -464.43 h 46.707 v 464.43 h -46.707" /><path
         id="path182"
         style="fill:#201e1d;fill-opacity:1;fill-rule:nonzero;stroke:none"
         d="m 417.488,1671.43 v -139.07 h 46.598 v 185.59 h 46.219 v 46.32 h -92.817 v -92.84" /><path
         id="path184"
         style="fill:#201e1d;fill-opacity:1;fill-rule:nonzero;stroke:none"
         d="m 138.938,1485.84 v -46.73 h 46.703 v 325.16 h 46.105 v -185.69 h 46.707 v 232.11 h 46.211 v 46.42 h -92.918 v -46.42 H 138.938 V 1532.36 H 92.8125 v -46.52 h 46.1255" /><path
         id="path186"
         style="fill:#201e1d;fill-opacity:1;fill-rule:nonzero;stroke:none"
         d="m 46.1133,1532.36 h 46.6992 v 46.22 H 0 v -139.47 h 46.1133 v 93.25" /><path
         id="path188"
         style="fill:#201e1d;fill-opacity:1;fill-rule:nonzero;stroke:none"
         d="m 185.641,1392.69 h 46.1055 v 46.418 H 185.641 Z" /><path
         id="path190"
         style="fill:#201e1d;fill-opacity:1;fill-rule:nonzero;stroke:none"
         d="M 92.8125,1439.11 H 46.1133 v -92.75 h 46.6992 v 92.75" /><path
         id="path192"
         style="fill:#201e1d;fill-opacity:1;fill-rule:nonzero;stroke:none"
         d="m 231.746,1346.36 h 46.707 v 46.332 h -46.707 z" /><path
         id="path194"
         style="fill:#201e1d;fill-opacity:1;fill-rule:nonzero;stroke:none"
         d="m 278.453,1300.03 h 46.2109 v 46.3281 H 278.453 Z" /><path
         id="path196"
         style="fill:#201e1d;fill-opacity:1;fill-rule:nonzero;stroke:none"
         d="M 138.938,1346.36 H 92.8125 v -92.84 h 46.1255 v 92.84" /><path
         id="path198"
         style="fill:#201e1d;fill-opacity:1;fill-rule:nonzero;stroke:none"
         d="M 464.086,1207.1 V 1067.83 H 185.641 v 185.69 H 138.938 V 975.09 h 46.703 v 46.42 h 278.445 v -46.42 h 46.219 v 278.43 h -46.219 v -46.42" /><path
         id="path200"
         style="fill:#201e1d;fill-opacity:1;fill-rule:nonzero;stroke:none"
         d="M 464.086,928.469 V 882.031 H 185.641 v 92.84 H 138.938 V 0 h 46.703 V 835.609 H 464.086 V 0 h 46.219 v 974.871 h -46.219 v -46.402" /><path
         id="path202"
         style="fill:#ffffff;fill-opacity:1;fill-rule:nonzero;stroke:none"
         d="m 4321.41,2328.54 h -68.56 v -34.28 h -68.53 v 137.28 h -34.07 v -68.49 h -34.49 v 68.49 h -34.12 v -68.49 h -34.41 v 68.49 h -34.13 v -68.49 h -34.43 v 68.49 h -34.12 v -205.77 h 34.12 v -102.85 h 171.58 v 34.29 h 34.07 v 34.28 h 34.49 v 34.28 h 34.04 v 34.28 h 34.49 v 34.21 h 68.56 v 34.28 h -34.49" /><path
         id="path204"
         style="fill:#201e1d;fill-opacity:1;fill-rule:nonzero;stroke:none"
         d="m 3978.67,2397.33 v -34.28 h 34.43 v 68.49 h 34.13 v -68.49 h 34.41 v 68.49 h 34.12 v -68.49 h 34.49 v 68.49 h 34.07 v -137.28 h 68.53 v 34.28 h -34.04 v 137.28 h -274.26 v -34.28 h 34.12 v -34.21" /><path
         id="path206"
         style="fill:#201e1d;fill-opacity:1;fill-rule:nonzero;stroke:none"
         d="m 4321.41,2328.54 h 34.49 v 34.51 h -103.05 v -34.51 h 68.56" /><path
         id="path208"
         style="fill:#201e1d;fill-opacity:1;fill-rule:nonzero;stroke:none"
         d="m 4355.9,2294.26 h 34.1211 v 34.2773 H 4355.9 Z" /><path
         id="path210"
         style="fill:#201e1d;fill-opacity:1;fill-rule:nonzero;stroke:none"
         d="m 3944.55,2294.26 v 137.28 h -34.49 v -205.77 h 34.49 v 68.49" /><path
         id="path212"
         style="fill:#201e1d;fill-opacity:1;fill-rule:nonzero;stroke:none"
         d="m 4287.34,2294.26 v -34.21 h 68.56 v 34.21 h -68.56" /><path
         id="path214"
         style="fill:#201e1d;fill-opacity:1;fill-rule:nonzero;stroke:none"
         d="m 4252.85,2225.77 h 34.4883 v 34.2812 H 4252.85 Z" /><path
         id="path216"
         style="fill:#201e1d;fill-opacity:1;fill-rule:nonzero;stroke:none"
         d="m 4218.81,2191.49 h 34.043 v 34.2852 h -34.043 z" /><path
         id="path218"
         style="fill:#201e1d;fill-opacity:1;fill-rule:nonzero;stroke:none"
         d="m 4184.32,2157.21 h 34.4883 v 34.2812 H 4184.32 Z" /><path
         id="path220"
         style="fill:#201e1d;fill-opacity:1;fill-rule:nonzero;stroke:none"
         d="m 4150.25,2122.92 h -171.58 v 102.85 h -34.12 v -137.13 h 239.77 v 68.57 h -34.07 v -34.29" /><path
         id="path222"
         style="fill:#ffffff;fill-opacity:1;fill-rule:nonzero;stroke:none"
         d="m 2737.56,2397.26 v -68.49 h -34.42 v 68.49 h -34.12 v -68.49 h -34.42 v 68.49 h -34.13 v -68.49 h -34.48 v 205.61 h -34.08 v -240.12 h -34.48 v 34.51 h -34.05 v 34.28 h -34.49 v -68.79 h 34.49 v -68.49 h 34.05 v -68.56 h 34.48 v -34.29 h 205.65 v 34.29 h 34.12 v 240.05 h -34.12" /><path
         id="path224"
         style="fill:#201e1d;fill-opacity:1;fill-rule:nonzero;stroke:none"
         d="m 2531.91,2534.38 h 34.0781 v 34.2891 H 2531.91 Z" /><path
         id="path226"
         style="fill:#201e1d;fill-opacity:1;fill-rule:nonzero;stroke:none"
         d="m 2565.99,2465.82 v -137.05 h 34.48 v 68.49 h 34.13 v -68.49 h 34.42 v 68.49 h 34.12 v -68.49 h 34.42 v 68.49 h 34.12 v 34.28 h -171.21 v 102.84 h -34.48 v -68.56" /><path
         id="path228"
         style="fill:#201e1d;fill-opacity:1;fill-rule:nonzero;stroke:none"
         d="m 2771.68,2397.26 v -240.05 h 34.49 v 240.05 h -34.49" /><path
         id="path230"
         style="fill:#201e1d;fill-opacity:1;fill-rule:nonzero;stroke:none"
         d="m 2497.43,2328.77 v -34.51 h 34.48 v 240.12 h -34.48 v -171.33 h -34.05 v -34.28 h 34.05" /><path
         id="path232"
         style="fill:#201e1d;fill-opacity:1;fill-rule:nonzero;stroke:none"
         d="m 2428.89,2363.05 h 34.49 v 34.21 h -68.54 v -103 h 34.05 v 68.79" /><path
         id="path234"
         style="fill:#201e1d;fill-opacity:1;fill-rule:nonzero;stroke:none"
         d="m 2463.38,2294.26 h -34.49 v -68.49 h 34.49 v 68.49" /><path
         id="path236"
         style="fill:#201e1d;fill-opacity:1;fill-rule:nonzero;stroke:none"
         d="m 2497.43,2225.77 h -34.05 v -68.56 h 34.05 v 68.56" /><path
         id="path238"
         style="fill:#201e1d;fill-opacity:1;fill-rule:nonzero;stroke:none"
         d="m 2737.56,2122.92 h -205.65 v 34.29 h -34.48 v -68.57 h 274.25 v 68.57 h -34.12 v -34.29" /><path
         id="path240"
         style="fill:#ffffff;fill-opacity:1;fill-rule:nonzero;stroke:none"
         d="m 1939.77,2465.82 v -137.05 h -34.42 v 68.49 h -34.13 v -68.49 h -34.42 v 68.49 h -34.13 v -68.49 h -34.49 v 205.62 h -34.05 v -240.13 h -34.49 v 34.51 h -34.06 v 34.28 h -34.49 v -68.79 h 34.49 v -68.49 h 34.06 v -68.56 h 34.49 v -34.29 h 205.64 v 34.29 h 34.11 v 308.61 h -34.11" /><path
         id="path242"
         style="fill:#201e1d;fill-opacity:1;fill-rule:nonzero;stroke:none"
         d="m 1734.13,2534.39 h 34.0508 v 34.2773 H 1734.13 Z" /><path
         id="path244"
         style="fill:#201e1d;fill-opacity:1;fill-rule:nonzero;stroke:none"
         d="m 1939.77,2465.82 h 34.1094 v 34.2812 H 1939.77 Z" /><path
         id="path246"
         style="fill:#201e1d;fill-opacity:1;fill-rule:nonzero;stroke:none"
         d="m 1768.18,2465.82 v -137.05 h 34.49 v 68.49 h 34.13 v -68.49 h 34.42 v 68.49 h 34.13 v -68.49 h 34.42 v 137.05 h -34.42 v -34.28 h -102.68 v 102.85 h -34.49 v -68.57" /><path
         id="path248"
         style="fill:#201e1d;fill-opacity:1;fill-rule:nonzero;stroke:none"
         d="m 1973.88,2465.82 v -308.61 h 34.49 v 308.61 h -34.49" /><path
         id="path250"
         style="fill:#201e1d;fill-opacity:1;fill-rule:nonzero;stroke:none"
         d="m 1699.64,2328.77 v -34.51 h 34.49 v 240.13 h -34.49 v -171.34 h -34.06 v -34.28 h 34.06" /><path
         id="path252"
         style="fill:#201e1d;fill-opacity:1;fill-rule:nonzero;stroke:none"
         d="m 1631.09,2363.05 h 34.49 v 34.21 h -68.54 v -103 h 34.05 v 68.79" /><path
         id="path254"
         style="fill:#201e1d;fill-opacity:1;fill-rule:nonzero;stroke:none"
         d="m 1665.58,2294.26 h -34.49 v -68.49 h 34.49 v 68.49" /><path
         id="path256"
         style="fill:#201e1d;fill-opacity:1;fill-rule:nonzero;stroke:none"
         d="m 1699.64,2225.77 h -34.06 v -68.56 h 34.06 v 68.56" /><path
         id="path258"
         style="fill:#201e1d;fill-opacity:1;fill-rule:nonzero;stroke:none"
         d="m 1939.77,2122.92 h -205.64 v 34.29 h -34.49 v -68.57 h 274.24 v 68.57 h -34.11 v -34.29" /><path
         id="path260"
         style="fill:#ffffff;fill-opacity:1;fill-rule:nonzero;stroke:none"
         d="m 436.973,2534.38 v -137.05 h -34.411 v 171.34 H 368.43 v -137.13 h -34.422 v 171.41 h -34.121 v -171.41 h -34.489 v 137.13 h -34.054 v -240.13 h 34.054 v -34.28 h 34.489 v -34.21 h 34.121 v -34.28 h -34.121 v 34.28 h -34.489 v 34.21 h -34.054 v 34.28 h -34.489 v 34.51 h -34.058 v 34.28 h -34.485 v -68.79 h 34.485 v -68.49 h 34.058 v -68.57 h 34.489 v -68.56 h 205.629 v 68.56 h 34.132 v 342.9 h -34.132" /><path
         id="path262"
         style="fill:#201e1d;fill-opacity:1;fill-rule:nonzero;stroke:none"
         d="m 334.008,2534.38 v -102.84 h 34.422 v 137.13 h 34.132 v 34.28 h -68.554 v -68.57" /><path
         id="path264"
         style="fill:#201e1d;fill-opacity:1;fill-rule:nonzero;stroke:none"
         d="m 471.105,2534.38 v -342.9 h 34.485 v 342.9 h -34.485" /><path
         id="path266"
         style="fill:#201e1d;fill-opacity:1;fill-rule:nonzero;stroke:none"
         d="m 402.562,2500.1 v -102.77 h 34.411 v 137.05 h 34.132 v 34.29 h -68.543 v -68.57" /><path
         id="path268"
         style="fill:#201e1d;fill-opacity:1;fill-rule:nonzero;stroke:none"
         d="m 196.855,2363.05 v -34.51 h 34.489 v 240.13 h 34.054 v -137.13 h 34.489 v 171.41 h 34.121 v 34.28 h -68.61 v -34.28 h -68.543 v -205.62 h -34.058 v -34.28 h 34.058" /><path
         id="path270"
         style="fill:#201e1d;fill-opacity:1;fill-rule:nonzero;stroke:none"
         d="m 128.312,2397.33 h 34.485 v 34.21 H 94.2461 v -103 h 34.0659 v 68.79" /><path
         id="path272"
         style="fill:#201e1d;fill-opacity:1;fill-rule:nonzero;stroke:none"
         d="m 231.344,2294.26 h 34.0547 v 34.2773 H 231.344 Z" /><path
         id="path274"
         style="fill:#201e1d;fill-opacity:1;fill-rule:nonzero;stroke:none"
         d="m 162.797,2328.54 h -34.485 v -68.49 h 34.485 v 68.49" /><path
         id="path276"
         style="fill:#201e1d;fill-opacity:1;fill-rule:nonzero;stroke:none"
         d="m 265.398,2260.05 h 34.4883 v 34.207 H 265.398 Z" /><path
         id="path278"
         style="fill:#201e1d;fill-opacity:1;fill-rule:nonzero;stroke:none"
         d="m 299.887,2225.77 h 34.1211 v 34.2891 H 299.887 Z" /><path
         id="path280"
         style="fill:#201e1d;fill-opacity:1;fill-rule:nonzero;stroke:none"
         d="m 196.855,2260.05 h -34.058 v -68.57 h 34.058 v 68.57" /><path
         id="path282"
         style="fill:#201e1d;fill-opacity:1;fill-rule:nonzero;stroke:none"
         d="m 436.973,2157.2 v -34.28 H 231.344 v 68.56 h -34.489 v -102.84 h 274.25 v 102.84 h -34.132 v -34.28" /><path
         id="path284"
         style="fill:#ffffff;fill-opacity:1;fill-rule:nonzero;stroke:none"
         d="m 1150.52,2500.1 v -205.85 h -68.54 v 34.51 h -34.42 v -68.78 h -34.13 v -34.21 h -34.485 v -34.29 h -34.05 v -68.56 h 205.625 v 34.28 h 34.13 v 342.9 h -34.13" /><path
         id="path286"
         style="fill:#ffffff;fill-opacity:1;fill-rule:nonzero;stroke:none"
         d="m 1116.1,2363.04 v 68.5 h -34.12 v -102.78 h 34.12 v 34.28" /><path
         id="path288"
         style="fill:#ffffff;fill-opacity:1;fill-rule:nonzero;stroke:none"
         d="m 1047.56,2397.25 v 34.29 h -34.13 v -68.5 h 34.13 v 34.21" /><path
         id="path290"
         style="fill:#ffffff;fill-opacity:1;fill-rule:nonzero;stroke:none"
         d="m 978.945,2225.77 v 34.21 h 34.485 v 68.78 h -34.485 v -34.51 h -34.05 v -34.27 h -34.497 v -68.5 h 34.497 v 34.29 h 34.05" /><path
         id="path292"
         style="fill:#ffffff;fill-opacity:1;fill-rule:nonzero;stroke:none"
         d="m 978.945,2397.25 v 137.13 h -34.05 v -205.62 h 34.05 v 68.49" /><path
         id="path294"
         style="fill:#201e1d;fill-opacity:1;fill-rule:nonzero;stroke:none"
         d="m 944.895,2534.38 h 34.0508 v 34.2852 H 944.895 Z" /><path
         id="path296"
         style="fill:#201e1d;fill-opacity:1;fill-rule:nonzero;stroke:none"
         d="m 1150.52,2500.1 h 34.1289 v 34.2812 H 1150.52 Z" /><path
         id="path298"
         style="fill:#201e1d;fill-opacity:1;fill-rule:nonzero;stroke:none"
         d="m 1184.65,2500.1 v -342.9 h 34.49 v 342.9 h -34.49" /><path
         id="path300"
         style="fill:#201e1d;fill-opacity:1;fill-rule:nonzero;stroke:none"
         d="m 1047.56,2431.54 v -68.5 h -34.13 v 68.5 z m -68.615,34.28 v -137.06 h 34.485 v -68.78 h 34.13 v 68.78 h 34.42 v 102.78 h 34.12 v -102.78 h -34.12 v -34.51 h 68.54 v 205.85 h -34.42 v -34.28 h -102.67 v 68.56 h -34.485 v -68.56" /><path
         id="path302"
         style="fill:#201e1d;fill-opacity:1;fill-rule:nonzero;stroke:none"
         d="m 944.895,2294.25 h 34.05 v 34.51 h -34.05 v 205.62 h -34.497 v -274.4 h 34.497 v 34.27" /><path
         id="path304"
         style="fill:#201e1d;fill-opacity:1;fill-rule:nonzero;stroke:none"
         d="m 978.945,2225.77 h 34.4844 v 34.2109 H 978.945 Z" /><path
         id="path306"
         style="fill:#201e1d;fill-opacity:1;fill-rule:nonzero;stroke:none"
         d="m 944.895,2191.48 h 34.0508 v 34.2812 H 944.895 Z" /><path
         id="path308"
         style="fill:#201e1d;fill-opacity:1;fill-rule:nonzero;stroke:none"
         d="m 944.895,2191.48 h -34.497 v 68.5 H 876.344 V 2157.2 h 34.054 v -34.28 h 34.497 v 68.56" /><path
         id="path310"
         style="fill:#201e1d;fill-opacity:1;fill-rule:nonzero;stroke:none"
         d="M 1150.52,2122.92 H 944.895 v -34.28 h 239.755 v 68.56 h -34.13 v -34.28" /><path
         id="path312"
         style="fill:#ffffff;fill-opacity:1;fill-rule:nonzero;stroke:none"
         d="m 3493.5,2431.61 v -103.07 h 34.14 v 103.07 h -34.14" /><path
         id="path314"
         style="fill:#ffffff;fill-opacity:1;fill-rule:nonzero;stroke:none"
         d="m 3321.93,2431.61 v 137.05 h -34.06 v -171.33 h 34.06 v 34.28" /><path
         id="path316"
         style="fill:#ffffff;fill-opacity:1;fill-rule:nonzero;stroke:none"
         d="m 3459.08,2397.33 v 68.49 h -34.12 v -103 h 34.12 v 34.51" /><path
         id="path318"
         style="fill:#ffffff;fill-opacity:1;fill-rule:nonzero;stroke:none"
         d="m 3390.54,2362.82 v 205.84 h -34.11 v -240.12 h 34.11 v 34.28" /><path
         id="path320"
         style="fill:#ffffff;fill-opacity:1;fill-rule:nonzero;stroke:none"
         d="m 3287.87,2328.54 v -34.2 h 68.56 v 34.2 h -34.5 v 34.28 h -34.06 v 34.51 h -68.54 v -102.99 h 34.05 v 34.2 h 34.49" /><path
         id="path322"
         style="fill:#ffffff;fill-opacity:1;fill-rule:nonzero;stroke:none"
         d="m 3424.96,2328.54 h -34.42 v -34.2 h -34.11 v -34.29 h -68.56 v 34.29 h -34.49 v -68.57 h 34.49 v -68.57 h 34.06 v -34.28 h 171.57 v 34.28 h 34.14 v 137.14 h -34.14 v 34.2 h -68.54" /><path
         id="path324"
         style="fill:#201e1d;fill-opacity:1;fill-rule:nonzero;stroke:none"
         d="m 3356.43,2568.66 h 34.1094 v 34.2812 H 3356.43 Z" /><path
         id="path326"
         style="fill:#201e1d;fill-opacity:1;fill-rule:nonzero;stroke:none"
         d="m 3287.87,2568.66 h 34.0586 v 34.2812 H 3287.87 Z" /><path
         id="path328"
         style="fill:#201e1d;fill-opacity:1;fill-rule:nonzero;stroke:none"
         d="m 3390.54,2500.1 v -171.56 h 102.96 v 103.07 h 34.14 v 34.21 h -68.56 v -103 h -34.12 v 103 h 34.12 v 34.28 h -34.12 v 68.56 h -34.42 v -68.56" /><path
         id="path330"
         style="fill:#201e1d;fill-opacity:1;fill-rule:nonzero;stroke:none"
         d="m 3321.93,2500.1 v -102.77 h -34.06 v -34.51 h 34.06 v -34.28 h 34.5 v 240.12 h -34.5 v -68.56" /><path
         id="path332"
         style="fill:#201e1d;fill-opacity:1;fill-rule:nonzero;stroke:none"
         d="m 3527.64,2431.61 v -103.07 h -34.14 v -34.2 h 34.14 V 2157.2 h 34.48 v 274.41 h -34.48" /><path
         id="path334"
         style="fill:#201e1d;fill-opacity:1;fill-rule:nonzero;stroke:none"
         d="m 3287.87,2397.33 v 171.33 h -34.49 v -137.05 h -34.05 v -34.28 h 68.54" /><path
         id="path336"
         style="fill:#201e1d;fill-opacity:1;fill-rule:nonzero;stroke:none"
         d="m 3219.33,2362.82 v 34.51 h -34.49 v -102.99 h 34.49 v 68.48" /><path
         id="path338"
         style="fill:#201e1d;fill-opacity:1;fill-rule:nonzero;stroke:none"
         d="m 3356.43,2294.34 h 34.1094 v 34.2031 H 3356.43 Z" /><path
         id="path340"
         style="fill:#201e1d;fill-opacity:1;fill-rule:nonzero;stroke:none"
         d="m 3253.38,2294.34 h 34.4922 v 34.2031 H 3253.38 Z" /><path
         id="path342"
         style="fill:#201e1d;fill-opacity:1;fill-rule:nonzero;stroke:none"
         d="m 3287.87,2294.34 v -34.29 h 68.56 v 34.29 h -68.56" /><path
         id="path344"
         style="fill:#201e1d;fill-opacity:1;fill-rule:nonzero;stroke:none"
         d="m 3253.38,2294.34 h -34.05 v -68.57 h 34.05 v 68.57" /><path
         id="path346"
         style="fill:#201e1d;fill-opacity:1;fill-rule:nonzero;stroke:none"
         d="m 3287.87,2225.77 h -34.49 v -68.57 h 34.49 v 68.57" /><path
         id="path348"
         style="fill:#201e1d;fill-opacity:1;fill-rule:nonzero;stroke:none"
         d="m 3493.5,2122.92 h 34.1406 v 34.2812 H 3493.5 Z" /><path
         id="path350"
         style="fill:#201e1d;fill-opacity:1;fill-rule:nonzero;stroke:none"
         d="m 3424.96,2122.92 h -103.03 v 34.28 h -34.06 v -68.56 h 205.63 v 34.28 h -68.54" /><path
         id="path352"
         style="fill:#6d97d6;fill-opacity:1;fill-rule:nonzero;stroke:none"
         d="m 1423.82,3105.29 h 31.8 v -31.79 h -31.8 z m -127.19,31.8 h 127.19 v -31.8 h -95.39 v -31.79 h 95.39 v -31.8 h -95.39 v -63.16 h -31.8 v 158.55" /><path
         id="path354"
         style="fill:#62c89f;fill-opacity:1;fill-rule:nonzero;stroke:none"
         d="m 1482.47,3137.09 h 158.99 v -31.8 h -63.6 v -95.39 h 63.6 v -31.36 h -158.99 v 31.36 h 63.59 v 95.39 h -63.59 v 31.8" /><path
         id="path356"
         style="fill:#97d552;fill-opacity:1;fill-rule:nonzero;stroke:none"
         d="m 1795.5,3009.9 h 31.79 v -31.36 h -31.79 z m 0,127.19 h 31.79 v -31.8 h -31.79 z m -31.8,-95.39 h 31.8 v -31.8 h -31.8 z m 0,63.59 h 31.8 v -31.79 h -31.8 z m -31.8,-31.79 h 31.8 v -31.8 h -31.8 z m -31.79,-31.8 h 31.79 v -31.8 h -31.79 z m 0,63.59 h 31.79 v -31.79 h -31.79 z m -31.8,-95.39 h 31.8 v -31.36 h -31.8 z m 0,127.19 h 31.8 v -31.8 h -31.8 v 31.8" /><path
         id="path358"
         style="fill:#fbcb3a;fill-opacity:1;fill-rule:nonzero;stroke:none"
         d="m 1854.15,3137.09 h 158.98 v -31.8 h -127.18 v -31.79 h 95.39 v -31.8 h -95.39 v -31.8 h 127.18 v -31.36 h -158.98 v 158.55" /><path
         id="path360"
         style="fill:#f25547;fill-opacity:1;fill-rule:nonzero;stroke:none"
         d="m 2039.99,3137.09 h 31.8 V 3009.9 h 127.18 v -31.36 h -158.98 v 158.55" /><path
         id="path362"
         style="fill:#201e1d;fill-opacity:1;fill-rule:nonzero;stroke:none"
         d="m 2301.03,3137.09 h 31.79 v -63.59 h 95.39 v 63.59 h 31.8 v -158.55 h -31.8 v 63.16 h -95.39 v -63.16 h -31.79 v 158.55" /><path
         id="path364"
         style="fill:#201e1d;fill-opacity:1;fill-rule:nonzero;stroke:none"
         d="m 2518.66,3137.09 h 95.39 v -31.8 h -95.39 z m -31.79,-31.8 h 31.79 v -31.79 h 95.39 v 31.79 h 31.8 v -126.75 h -31.8 v 63.16 h -95.39 v -63.16 h -31.79 v 126.75" /><path
         id="path366"
         style="fill:#201e1d;fill-opacity:1;fill-rule:nonzero;stroke:none"
         d="m 2799.89,3137.09 h 31.8 v -158.55 h -31.8 v 31.36 h -31.79 v 31.8 h 31.79 z m -63.59,-63.59 h 31.8 v -31.8 h -31.8 z m -63.59,63.59 h 31.79 v -31.8 h 31.8 v -31.79 h -31.8 v -94.96 h -31.79 v 158.55" /><path
         id="path368"
         style="fill:#201e1d;fill-opacity:1;fill-rule:nonzero;stroke:none"
         d="m 2985.73,3105.29 h 31.8 v -95.39 h -31.8 z m -127.19,31.8 h 127.19 v -31.8 h -95.39 v -95.39 h 95.39 v -31.36 h -127.19 v 158.55" /><path
         id="path370"
         style="fill:#201e1d;fill-opacity:1;fill-rule:nonzero;stroke:none"
         d="m 3171.57,3041.7 h 31.8 v -31.8 h -31.8 z m -95.39,31.8 h 95.39 v -31.8 h -95.39 z m 0,63.59 h 127.19 v -31.8 h -127.19 z m -31.8,-127.19 h 127.19 v -31.36 h -127.19 z m 0,95.39 h 31.8 v -31.79 h -31.8 v 31.79" /></g></g></svg>