<?xml version="1.0" encoding="UTF-8" standalone="no"?>
<!-- Created with Inkscape (http://www.inkscape.org/) -->

<svg
   xmlns:osb="http://www.openswatchbook.org/uri/2009/osb"
   xmlns:dc="http://purl.org/dc/elements/1.1/"
   xmlns:cc="http://creativecommons.org/ns#"
   xmlns:rdf="http://www.w3.org/1999/02/22-rdf-syntax-ns#"
   xmlns:svg="http://www.w3.org/2000/svg"
   xmlns="http://www.w3.org/2000/svg"
   xmlns:xlink="http://www.w3.org/1999/xlink"
   xmlns:sodipodi="http://sodipodi.sourceforge.net/DTD/sodipodi-0.dtd"
   xmlns:inkscape="http://www.inkscape.org/namespaces/inkscape"
   width="297mm"
   height="210mm"
   viewBox="0 0 1052.3622 744.09448"
   id="svg2"
   version="1.1"
   inkscape:version="0.91 r13725"
   sodipodi:docname="hot_potato_retro_logo.svg"
   inkscape:export-filename="C:\Users\Dane\Documents\Game Dev\HotPotato\hotpotato_logo.png"
   inkscape:export-xdpi="168.87183"
   inkscape:export-ydpi="168.87183">
  <defs
     id="defs4">
    <linearGradient
       inkscape:collect="always"
       id="linearGradient4266">
      <stop
         style="stop-color:#8800aa;stop-opacity:1"
         offset="0"
         id="stop4268" />
      <stop
         style="stop-color:#2a7fff;stop-opacity:1"
         offset="1"
         id="stop4270" />
    </linearGradient>
    <linearGradient
       osb:paint="gradient"
       id="linearGradient4220-0">
      <stop
         id="stop4230"
         offset="0"
         style="stop-color:#00aad4;stop-opacity:1;" />
      <stop
         id="stop4232"
         offset="1"
         style="stop-color:#00aad4;stop-opacity:0;" />
    </linearGradient>
    <linearGradient
       inkscape:collect="always"
       id="linearGradient4220"
       osb:paint="gradient">
      <stop
         style="stop-color:#00aad4;stop-opacity:1;"
         offset="0"
         id="stop4222" />
      <stop
         style="stop-color:#00aad4;stop-opacity:0;"
         offset="1"
         id="stop4224" />
    </linearGradient>
    <filter
       inkscape:collect="always"
       style="color-interpolation-filters:sRGB"
       id="filter5669"
       x="-0.12451304"
       width="1.2490261"
       y="-0.069007229"
       height="1.1380145">
      <feGaussianBlur
         inkscape:collect="always"
         stdDeviation="6.2560734"
         id="feGaussianBlur5671" />
    </filter>
    <filter
       inkscape:collect="always"
       style="color-interpolation-filters:sRGB"
       id="filter5677"
       x="-0.015537486"
       width="1.031075"
       y="-0.0097745797"
       height="1.0195492">
      <feGaussianBlur
         inkscape:collect="always"
         stdDeviation="0.99791257"
         id="feGaussianBlur5679" />
    </filter>
    <linearGradient
       x1="0"
       y1="0"
       x2="1"
       y2="0"
       gradientUnits="userSpaceOnUse"
       gradientTransform="matrix(5.9e-6,-135.01317,135.01317,5.9e-6,643.5625,218.55273)"
       spreadMethod="pad"
       id="linearGradient2958">
      <stop
         style="stop-opacity:1;stop-color:#fb8202"
         offset="0"
         id="stop2960" />
      <stop
         style="stop-opacity:1;stop-color:#fec40e"
         offset="1"
         id="stop2962" />
    </linearGradient>
    <linearGradient
       x1="0"
       y1="0"
       x2="1"
       y2="0"
       gradientUnits="userSpaceOnUse"
       gradientTransform="matrix(7.2e-6,164.26703,-164.26703,7.2e-6,643.5625,84.181641)"
       spreadMethod="pad"
       id="linearGradient2938">
      <stop
         style="stop-opacity:1;stop-color:#a80403"
         offset="0"
         id="stop2940" />
      <stop
         style="stop-opacity:1;stop-color:#fb8202"
         offset="1"
         id="stop2942" />
    </linearGradient>
    <linearGradient
       x1="0"
       y1="0"
       x2="1"
       y2="0"
       gradientUnits="userSpaceOnUse"
       gradientTransform="matrix(9.3e-6,211.81232,-211.81232,9.3e-6,643.5625,81.738281)"
       spreadMethod="pad"
       id="linearGradient2918">
      <stop
         style="stop-opacity:1;stop-color:#a80403"
         offset="0"
         id="stop2920" />
      <stop
         style="stop-opacity:1;stop-color:#800302"
         offset="1"
         id="stop2922" />
    </linearGradient>
    <linearGradient
       x1="0"
       y1="0"
       x2="1"
       y2="0"
       gradientUnits="userSpaceOnUse"
       gradientTransform="matrix(7.3e-6,-166.59607,166.59607,7.3e-6,639.22852,249.73633)"
       spreadMethod="pad"
       id="linearGradient2898">
      <stop
         style="stop-opacity:1;stop-color:#a80403"
         offset="0"
         id="stop2900" />
      <stop
         style="stop-opacity:1;stop-color:#fb8202"
         offset="1"
         id="stop2902" />
    </linearGradient>
    <linearGradient
       x1="0"
       y1="0"
       x2="1"
       y2="0"
       gradientUnits="userSpaceOnUse"
       gradientTransform="matrix(9.3e-6,211.8145,-211.8145,9.3e-6,639.22656,81.737305)"
       spreadMethod="pad"
       id="linearGradient2878">
      <stop
         style="stop-opacity:1;stop-color:#a80403"
         offset="0"
         id="stop2880" />
      <stop
         style="stop-opacity:1;stop-color:#800302"
         offset="1"
         id="stop2882" />
    </linearGradient>
    <linearGradient
       x1="0"
       y1="0"
       x2="1"
       y2="0"
       gradientUnits="userSpaceOnUse"
       gradientTransform="matrix(9.3e-6,211.81299,-211.81299,9.3e-6,637.58398,81.737305)"
       spreadMethod="pad"
       id="linearGradient2858">
      <stop
         style="stop-opacity:1;stop-color:#a80403"
         offset="0"
         id="stop2860" />
      <stop
         style="stop-opacity:1;stop-color:#800302"
         offset="1"
         id="stop2862" />
    </linearGradient>
    <linearGradient
       x1="0"
       y1="0"
       x2="1"
       y2="0"
       gradientUnits="userSpaceOnUse"
       gradientTransform="matrix(9.3e-6,211.81299,-211.81299,9.3e-6,637.58398,81.737305)"
       spreadMethod="pad"
       id="linearGradient2858-8">
      <stop
         style="stop-opacity:1;stop-color:#a80403"
         offset="0"
         id="stop2860-2" />
      <stop
         style="stop-opacity:1;stop-color:#800302"
         offset="1"
         id="stop2862-9" />
    </linearGradient>
    <linearGradient
       x1="0"
       y1="0"
       x2="1"
       y2="0"
       gradientUnits="userSpaceOnUse"
       gradientTransform="matrix(9.3e-6,211.8145,-211.8145,9.3e-6,639.22656,81.737305)"
       spreadMethod="pad"
       id="linearGradient2878-2">
      <stop
         style="stop-opacity:1;stop-color:#a80403"
         offset="0"
         id="stop2880-4" />
      <stop
         style="stop-opacity:1;stop-color:#800302"
         offset="1"
         id="stop2882-9" />
    </linearGradient>
    <linearGradient
       x1="0"
       y1="0"
       x2="1"
       y2="0"
       gradientUnits="userSpaceOnUse"
       gradientTransform="matrix(7.3e-6,-166.59607,166.59607,7.3e-6,639.22852,249.73633)"
       spreadMethod="pad"
       id="linearGradient2898-2">
      <stop
         style="stop-opacity:1;stop-color:#a80403"
         offset="0"
         id="stop2900-4" />
      <stop
         style="stop-opacity:1;stop-color:#fb8202"
         offset="1"
         id="stop2902-0" />
    </linearGradient>
    <linearGradient
       x1="0"
       y1="0"
       x2="1"
       y2="0"
       gradientUnits="userSpaceOnUse"
       gradientTransform="matrix(9.3e-6,211.81232,-211.81232,9.3e-6,643.5625,81.738281)"
       spreadMethod="pad"
       id="linearGradient2918-1">
      <stop
         style="stop-opacity:1;stop-color:#a80403"
         offset="0"
         id="stop2920-3" />
      <stop
         style="stop-opacity:1;stop-color:#800302"
         offset="1"
         id="stop2922-4" />
    </linearGradient>
    <linearGradient
       x1="0"
       y1="0"
       x2="1"
       y2="0"
       gradientUnits="userSpaceOnUse"
       gradientTransform="matrix(7.2e-6,164.26703,-164.26703,7.2e-6,643.5625,84.181641)"
       spreadMethod="pad"
       id="linearGradient2938-4">
      <stop
         style="stop-opacity:1;stop-color:#a80403"
         offset="0"
         id="stop2940-4" />
      <stop
         style="stop-opacity:1;stop-color:#fb8202"
         offset="1"
         id="stop2942-1" />
    </linearGradient>
    <linearGradient
       x1="0"
       y1="0"
       x2="1"
       y2="0"
       gradientUnits="userSpaceOnUse"
       gradientTransform="matrix(5.9e-6,-135.01317,135.01317,5.9e-6,643.5625,218.55273)"
       spreadMethod="pad"
       id="linearGradient2958-8">
      <stop
         style="stop-opacity:1;stop-color:#fb8202"
         offset="0"
         id="stop2960-9" />
      <stop
         style="stop-opacity:1;stop-color:#fec40e"
         offset="1"
         id="stop2962-3" />
    </linearGradient>
    <linearGradient
       inkscape:collect="always"
       xlink:href="#linearGradient2898-2"
       id="linearGradient6210"
       x1="366.18054"
       y1="646.80664"
       x2="585.81384"
       y2="744.90118"
       gradientUnits="userSpaceOnUse"
       gradientTransform="translate(-43.9278,-27.786251)" />
    <linearGradient
       inkscape:collect="always"
       xlink:href="#linearGradient2898-2"
       id="linearGradient6243"
       x1="480.23483"
       y1="539.94269"
       x2="509.24643"
       y2="539.94269"
       gradientUnits="userSpaceOnUse"
       gradientTransform="translate(-52.68039,-43.597564)" />
    <linearGradient
       inkscape:collect="always"
       xlink:href="#linearGradient2938-4"
       id="linearGradient6251"
       x1="648.45789"
       y1="499.19348"
       x2="669.6319"
       y2="499.19348"
       gradientUnits="userSpaceOnUse"
       gradientTransform="translate(-52.68039,-43.597564)" />
    <linearGradient
       inkscape:collect="always"
       xlink:href="#linearGradient2958"
       id="linearGradient6260"
       x1="390.04306"
       y1="356.87683"
       x2="784.42987"
       y2="356.87683"
       gradientUnits="userSpaceOnUse"
       gradientTransform="translate(-52.68039,264.67016)" />
    <linearGradient
       inkscape:collect="always"
       xlink:href="#linearGradient2878-2"
       id="linearGradient6268"
       x1="375.12595"
       y1="661.64679"
       x2="792.76483"
       y2="661.64679"
       gradientUnits="userSpaceOnUse"
       gradientTransform="translate(-52.68039,-43.597564)" />
    <linearGradient
       inkscape:collect="always"
       xlink:href="#linearGradient2918-1"
       id="linearGradient4240"
       x1="413.67688"
       y1="927.28955"
       x2="753.80835"
       y2="927.28955"
       gradientUnits="userSpaceOnUse" />
    <linearGradient
       inkscape:collect="always"
       xlink:href="#linearGradient4266"
       id="linearGradient4272"
       x1="462.72415"
       y1="818.29565"
       x2="728.3764"
       y2="998.13556"
       gradientUnits="userSpaceOnUse"
       gradientTransform="translate(25.431912,3.6331303)" />
  </defs>
  <sodipodi:namedview
     id="base"
     pagecolor="#ffffff"
     bordercolor="#666666"
     borderopacity="1.0"
     inkscape:pageopacity="0.0"
     inkscape:pageshadow="2"
     inkscape:zoom="0.55048947"
     inkscape:cx="511.66572"
     inkscape:cy="381.59998"
     inkscape:document-units="px"
     inkscape:current-layer="layer1"
     showgrid="false"
     inkscape:window-width="1280"
     inkscape:window-height="666"
     inkscape:window-x="-8"
     inkscape:window-y="-8"
     inkscape:window-maximized="1"
     showguides="false" />
  <metadata
     id="metadata7">
    <rdf:RDF>
      <cc:Work
         rdf:about="">
        <dc:format>image/svg+xml</dc:format>
        <dc:type
           rdf:resource="http://purl.org/dc/dcmitype/StillImage" />
        <dc:title></dc:title>
      </cc:Work>
    </rdf:RDF>
  </metadata>
  <g
     inkscape:label="Layer 1"
     inkscape:groupmode="layer"
     id="layer1"
     transform="translate(0,-308.26772)">
    <g
       id="g5681"
       transform="translate(210.72156,12.715956)" />
    <g
       id="g3412"
       transform="matrix(1.086952,0,0,1.0521049,-55.268997,32.046416)">
      <path
         sodipodi:nodetypes="cccccccccccccc"
         inkscape:connector-curvature="0"
         id="path214"
         d="m 621.08158,477.83509 c 9.62459,19.27709 16.31808,49.61192 -4.55204,63.75501 -22.45928,10.09393 -38.52361,-17.31309 -41.79693,-36.46407 -4.32543,-41.70555 -22.22494,-83.42761 -56.18781,-109.02339 -7.50867,-6.06698 -40.96118,-28.22646 -23.32895,-7.38521 31.52403,54.32103 29.18269,124.40861 3.75704,180.58085 -13.07419,30.40253 -43.90489,57.66169 -78.58066,51.47279 -18.68759,-0.0401 -23.0424,-31.10749 -30.4751,-32.4507 -42.22456,34.18524 -75.52509,88.08497 -65.75627,144.74137 9.28816,59.50061 60.54684,106.10562 118.06724,116.88674 76.25564,6.7436 118.14667,16.35774 207.69125,-22.94967 36.89027,-15.14115 74.70335,-40.19956 85.72053,-81.29309 14.53485,-54.50062 -9.07305,-110.14636 -34.79595,-157.28988 -22.42688,-39.67066 -49.50879,-76.65628 -79.76235,-110.58075 z"
         style="fill:url(#linearGradient6268);fill-opacity:1;fill-rule:nonzero;stroke:none" />
      <path
         inkscape:connector-curvature="0"
         id="path6129"
         d="m 524.595,412.18774 c 1.71991,2.7406 6.00366,64.72106 2.69922,104.48633 -3.01602,36.29447 -25.72545,82.61852 -43.71094,113.52539 l 3.32031,-23.10938 c 0,0 -18.28236,29.03516 -37.57031,30.44141 -21.2605,1.55007 -51.58275,1.35805 -56.12109,-31.54492 0,0 -63.53763,51.05574 -54.46094,119.13086 9.07668,68.07511 78.28711,105.51757 78.28711,105.51757 l 40.84375,-21.55664 20.55078,-143.02734 c 82.52635,17.9232 140.10742,140.43359 140.10742,140.43359 10.33027,13.05064 106.12918,-26.65605 112.59961,-108.18164 3.62602,-45.68685 -84.67206,-185.7545 -93.0332,-193.55859 0,0 -1.55231,3.43092 -1.37305,9.3789 0.44456,14.75082 6.60243,24.13969 -8.79297,39.47461 -12.56547,12.51613 -24.0929,12.74661 -42.54687,3.57227 -7.20968,-3.58427 -16.18468,-11.46856 -17.52539,-27.57422 C 562.38447,463.71832 524.595,412.18774 524.595,412.18774 Z"
         style="fill:url(#linearGradient6260);fill-opacity:1;fill-rule:evenodd;stroke:#c87137;stroke-width:1px;stroke-linecap:butt;stroke-linejoin:miter;stroke-opacity:1" />
      <g
         transform="matrix(0.80864772,0.6835946,0.57272951,-0.81973129,-371.87073,860.06289)"
         id="g6089">
        <path
           transform="matrix(1.1255333,-0.76243636,0.71016149,1.1670417,-432.21769,301.44699)"
           sodipodi:nodetypes="cscssssscc"
           inkscape:connector-curvature="0"
           id="path3336"
           d="m 447.3536,584.76791 c 0,0 -6.11993,23.52993 0,37.50082 6.11992,13.9709 0,56.6189 0,56.6189 0,0 -9.61703,38.97145 5.24565,61.03076 14.86266,22.05931 46.33654,62.50138 95.29593,50.73642 48.95937,-11.76497 54.08617,-100.10492 48.95937,-119.12028 -3.94817,-14.6438 -21.71636,-58.4216 -28.82111,-81.57692 -10.03079,-32.69171 -12.03482,-32.3839 -49.8636,-41.21991 -24.35922,-5.6898 -49.39652,14.70621 -49.39652,14.70621 z"
           style="fill:#aa8800;fill-rule:evenodd;stroke:#502d16;stroke-width:0.9175719px;stroke-linecap:butt;stroke-linejoin:miter;stroke-opacity:1;filter:url(#filter5677)" />
        <g
           id="g5617"
           style="filter:url(#filter5669)"
           transform="matrix(0.88408892,-0.46731872,0.46731872,0.88408892,-55.144877,203.59471)">
          <ellipse
             ry="4.8059788"
             rx="1.3107215"
             cy="803.85181"
             cx="396.35532"
             id="path4190"
             style="fill:#502d16;stroke:#502d16;stroke-opacity:1" />
          <ellipse
             ry="8.3012362"
             rx="6.1167002"
             cy="638.67566"
             cx="385.10648"
             id="path4192"
             style="opacity:0.38900003;fill:#502d16;fill-opacity:0.8;stroke:#502d16;stroke-opacity:1" />
          <ellipse
             ry="13.544122"
             rx="2.1845357"
             cy="775.54352"
             cx="456.72589"
             id="path4194"
             style="opacity:0.54000005;fill:#502d16;stroke:#502d16;stroke-opacity:1" />
          <ellipse
             transform="matrix(0.999955,-0.00948696,-0.01772564,0.99984289,0,0)"
             ry="13.366495"
             rx="2.4168637"
             cy="790.27954"
             cx="317.7142"
             id="path4196"
             style="opacity:0.35700001;fill:#502d16;stroke:#502d16;stroke-width:1.34897602;stroke-opacity:1" />
          <ellipse
             ry="3.9321644"
             rx="0.87381428"
             cy="603.29205"
             cx="343.01938"
             id="path4198"
             style="fill:#502d16;stroke:#502d16;stroke-opacity:1" />
          <ellipse
             ry="4.3690715"
             rx="2.1845357"
             cy="674.00061"
             cx="445.2084"
             id="path4200"
             style="fill:#502d16;stroke:#502d16;stroke-opacity:1" />
          <ellipse
             ry="3.9321644"
             rx="2.1845357"
             cy="735.07092"
             cx="349.37326"
             id="path4202"
             style="fill:#502d16;stroke:#502d16;stroke-opacity:1" />
          <ellipse
             ry="2.1845357"
             rx="1.7476286"
             cy="735.60449"
             cx="457.00488"
             id="path4204"
             style="fill:#502d16;stroke:#502d16;stroke-opacity:1" />
          <ellipse
             ry="4.8059788"
             rx="3.0583501"
             cy="669.26349"
             cx="312.33612"
             id="path4209"
             style="fill:#502d16;stroke:#502d16;stroke-opacity:1" />
          <ellipse
             ry="4.8059788"
             rx="1.3107215"
             cy="846.72595"
             cx="358.14304"
             id="path4211"
             style="fill:#502d16;stroke:#502d16;stroke-opacity:1" />
        </g>
      </g>
      <path
         sodipodi:nodetypes="cscsc"
         inkscape:connector-curvature="0"
         id="path6129-9"
         d="m 603.85893,412.73084 c 0,0 11.63275,26.09627 -0.84762,41.92297 -12.48039,15.82668 -4.41676,43.87059 -4.41676,43.87059 0,0 -0.87446,-20.01334 14.65599,-38.42805 11.47912,-13.61097 -9.39161,-47.36551 -9.39161,-47.36551 z"
         style="fill:url(#linearGradient6251);fill-opacity:1;fill-rule:evenodd;stroke:#d40000;stroke-width:0.50814843px;stroke-linecap:butt;stroke-linejoin:miter;stroke-opacity:1" />
      <path
         sodipodi:nodetypes="cscsc"
         inkscape:connector-curvature="0"
         id="path6129-9-0"
         d="m 438.64956,417.58789 c 0,0 19.74137,49.99596 -1.43845,80.31719 -21.17986,30.32119 -7.49547,84.0485 -7.49547,84.0485 0,0 -1.484,-38.34212 24.87196,-73.62153 19.48065,-26.07628 -15.93804,-90.74416 -15.93804,-90.74416 z"
         style="fill:#d40000;fill-opacity:1;fill-rule:evenodd;stroke:#d40000;stroke-width:0.91625476px;stroke-linecap:butt;stroke-linejoin:miter;stroke-opacity:1" />
      <path
         sodipodi:nodetypes="cccccccccccccc"
         inkscape:connector-curvature="0"
         id="path214-6"
         d="m 620.88875,478.80625 c 9.62459,19.27709 16.31808,49.61192 -4.55204,63.75501 -22.45928,10.09393 -38.52361,-17.31309 -41.79693,-36.46407 -4.32543,-41.70555 -22.22494,-83.42761 -56.18781,-109.02339 -7.50867,-6.06698 -40.96118,-28.22646 -23.32895,-7.38521 31.52403,54.32103 29.18269,124.40861 3.75704,180.58085 -13.07419,30.40253 -43.90489,57.66169 -78.58066,51.47279 -18.68759,-0.0401 -23.0424,-31.10749 -30.4751,-32.4507 -42.22456,34.18524 -75.52509,88.08497 -65.75627,144.74137 9.28816,59.50061 60.54684,106.10562 118.06724,116.88674 76.25564,6.7436 118.14667,16.35774 207.69125,-22.94967 36.89027,-15.14115 74.70335,-40.19956 85.72053,-81.29309 C 749.9819,692.17626 726.374,636.53052 700.6511,589.387 678.22422,549.71634 651.14231,512.73072 620.88875,478.80625 Z"
         style="opacity:0.33300003;fill:url(#linearGradient6210);fill-opacity:1;fill-rule:nonzero;stroke:none" />
      <path
         sodipodi:nodetypes="cscsc"
         inkscape:connector-curvature="0"
         id="path6129-9-0-9"
         d="m 444.11015,428.64727 c 0,0 11.0167,41.26852 -0.96418,66.17794 -11.9809,24.90937 -15.28038,69.23091 -15.28038,69.23091 0,0 10.13776,-31.60008 25.04193,-60.57657 11.01623,-21.41756 -8.79737,-74.83228 -8.79737,-74.83228 z"
         style="fill:url(#linearGradient6243);fill-opacity:1;fill-rule:evenodd;stroke:#c87132;stroke-width:0.62404048px;stroke-linecap:butt;stroke-linejoin:miter;stroke-opacity:1" />
    </g>
    <text
       xml:space="preserve"
       style="font-style:normal;font-variant:normal;font-weight:100;font-stretch:normal;font-size:128.45970154px;line-height:125%;font-family:'AR DARLING';-inkscape-font-specification:'AR DARLING Thin';letter-spacing:0px;word-spacing:0px;fill:#550000;fill-opacity:1;stroke:none;stroke-width:1px;stroke-linecap:butt;stroke-linejoin:miter;stroke-opacity:1"
       x="40.302128"
       y="851.33765"
       id="text3398"
       sodipodi:linespacing="125%"
       transform="matrix(0.96152532,-0.27471633,0.27471633,0.96152532,0,0)"><tspan
         sodipodi:role="line"
         id="tspan3400"
         x="40.302128"
         y="851.33765">HOT</tspan><tspan
         sodipodi:role="line"
         x="40.302128"
         y="1011.9123"
         id="tspan3402">POTATO</tspan></text>
    <text
       xml:space="preserve"
       style="font-style:normal;font-variant:normal;font-weight:normal;font-stretch:normal;font-size:107.78650665px;line-height:125%;font-family:'Computer Pixel-7';-inkscape-font-specification:'Computer Pixel-7';letter-spacing:0px;word-spacing:0px;opacity:1;fill:url(#linearGradient4272);fill-opacity:1;fill-rule:nonzero;stroke:#7137c8;stroke-width:3.20000005;stroke-linecap:butt;stroke-linejoin:miter;stroke-miterlimit:4;stroke-dasharray:none;stroke-opacity:1"
       x="439.6088"
       y="970.02191"
       id="text3402"
       sodipodi:linespacing="125%"><tspan
         sodipodi:role="line"
         id="tspan3404"
         x="439.6088"
         y="970.02191"
         style="font-size:173.77433777px;fill:url(#linearGradient4272);fill-opacity:1;fill-rule:nonzero;stroke:#7137c8;stroke-width:3.20000005;stroke-miterlimit:4;stroke-dasharray:none">RETRO</tspan></text>
  </g>
</svg>
