<?xml version="1.0" encoding="UTF-8" standalone="no"?>
<!-- Created with Inkscape (http://www.inkscape.org/) -->

<svg
   xmlns:dc="http://purl.org/dc/elements/1.1/"
   xmlns:cc="http://creativecommons.org/ns#"
   xmlns:rdf="http://www.w3.org/1999/02/22-rdf-syntax-ns#"
   xmlns:svg="http://www.w3.org/2000/svg"
   xmlns="http://www.w3.org/2000/svg"
   xmlns:sodipodi="http://sodipodi.sourceforge.net/DTD/sodipodi-0.dtd"
   xmlns:inkscape="http://www.inkscape.org/namespaces/inkscape"
   width="256"
   height="256"
   viewBox="0 0 256 256"
   id="svg3510"
   version="1.1"
   inkscape:version="0.91 r13725"
   sodipodi:docname="potato_pixels.svg"
   inkscape:export-filename="C:\Users\Dane\Documents\Game Dev\HotPotato\Media\potato_pixels_2.png"
   inkscape:export-xdpi="384"
   inkscape:export-ydpi="384">
  <defs
     id="defs3512" />
  <sodipodi:namedview
     id="base"
     pagecolor="#ffffff"
     bordercolor="#666666"
     borderopacity="1.0"
     inkscape:pageopacity="0.0"
     inkscape:pageshadow="2"
     inkscape:zoom="2.6469985"
     inkscape:cx="130.16683"
     inkscape:cy="75.90291"
     inkscape:document-units="px"
     inkscape:current-layer="layer1"
     showgrid="true"
     units="px"
     inkscape:showpageshadow="false"
     borderlayer="true"
     showborder="true"
     inkscape:window-width="1280"
     inkscape:window-height="666"
     inkscape:window-x="-8"
     inkscape:window-y="-8"
     inkscape:window-maximized="1">
    <inkscape:grid
       type="xygrid"
       id="grid3518"
       dotted="true"
       originx="0"
       empspacing="1"
       spacingx="2"
       snapvisiblegridlinesonly="true"
       spacingy="2" />
  </sodipodi:namedview>
  <metadata
     id="metadata3515">
    <rdf:RDF>
      <cc:Work
         rdf:about="">
        <dc:format>image/svg+xml</dc:format>
        <dc:type
           rdf:resource="http://purl.org/dc/dcmitype/StillImage" />
        <dc:title></dc:title>
      </cc:Work>
    </rdf:RDF>
  </metadata>
  <g
     inkscape:label="Layer 1"
     inkscape:groupmode="layer"
     id="layer1"
     transform="translate(0,-796.36216)">
    <path
       inkscape:connector-curvature="0"
       style="fill:#aa8800;fill-rule:evenodd;stroke:none;stroke-width:1px;stroke-linecap:butt;stroke-linejoin:miter;stroke-opacity:1"
       d="m 90,962.36218 10,0 0,10 -10,0 z"
       id="rect3520-1" />
    <path
       inkscape:connector-curvature="0"
       style="fill:#aa8800;fill-rule:evenodd;stroke:none;stroke-width:1px;stroke-linecap:butt;stroke-linejoin:miter;stroke-opacity:1"
       d="m 80,952.36218 10,0 0,10 -10,0 z"
       id="rect3520-9" />
    <path
       inkscape:connector-curvature="0"
       style="fill:#aa8800;fill-rule:evenodd;stroke:none;stroke-width:1px;stroke-linecap:butt;stroke-linejoin:miter;stroke-opacity:1"
       d="m 80,942.36218 10,0 0,10 -10,0 z"
       id="rect3520-83" />
    <path
       inkscape:connector-curvature="0"
       style="fill:#aa8800;fill-rule:evenodd;stroke:none;stroke-width:1px;stroke-linecap:butt;stroke-linejoin:miter;stroke-opacity:1"
       d="m 80,932.36218 10,0 0,10 -10,0 z"
       id="rect3520-92" />
    <path
       inkscape:connector-curvature="0"
       style="fill:#aa8800;fill-rule:evenodd;stroke:none;stroke-width:1px;stroke-linecap:butt;stroke-linejoin:miter;stroke-opacity:1"
       d="m 80,922.36218 10,0 0,10 -10,0 z"
       id="rect3520-5" />
    <path
       inkscape:connector-curvature="0"
       style="fill:#aa8800;fill-rule:evenodd;stroke:none;stroke-width:1px;stroke-linecap:butt;stroke-linejoin:miter;stroke-opacity:1"
       d="m 90,912.36218 10,0 0,10 -10,0 z"
       id="rect3520-80" />
    <path
       inkscape:connector-curvature="0"
       style="fill:#c49f00;fill-rule:evenodd;stroke:none;stroke-width:1px;stroke-linecap:butt;stroke-linejoin:miter;stroke-opacity:1;fill-opacity:1"
       d="m 100,902.36218 10,0 0,10 -10,0 z"
       id="rect3520-99" />
    <path
       inkscape:connector-curvature="0"
       style="fill:#c49f00;fill-rule:evenodd;stroke:none;stroke-width:1px;stroke-linecap:butt;stroke-linejoin:miter;stroke-opacity:1;fill-opacity:1"
       d="m 110,902.36218 10,0 0,10 -10,0 z"
       id="rect3520-7" />
    <path
       inkscape:connector-curvature="0"
       style="fill:#c49f00;fill-rule:evenodd;stroke:none;stroke-width:1px;stroke-linecap:butt;stroke-linejoin:miter;stroke-opacity:1;fill-opacity:1"
       d="m 120,912.36218 10,0 0,10 -10,0 z"
       id="rect3520-18" />
    <path
       inkscape:connector-curvature="0"
       style="fill:#c49f00;fill-rule:evenodd;stroke:none;stroke-width:1px;stroke-linecap:butt;stroke-linejoin:miter;stroke-opacity:1;fill-opacity:1"
       d="m 130,952.36218 10,0 0,10 -10,0 z"
       id="rect3520-3" />
    <path
       inkscape:connector-curvature="0"
       style="fill:#aa8800;fill-rule:evenodd;stroke:none;stroke-width:1px;stroke-linecap:butt;stroke-linejoin:miter;stroke-opacity:1"
       d="m 130,962.36218 10,0 0,10 -10,0 z"
       id="rect3520-70" />
    <path
       inkscape:connector-curvature="0"
       style="fill:#c8ab37;fill-rule:evenodd;stroke:none;stroke-width:1px;stroke-linecap:butt;stroke-linejoin:miter;stroke-opacity:1"
       d="m 100,932.36218 10,0 0,10 -10,0 z"
       id="rect3520-77-8" />
    <path
       inkscape:connector-curvature="0"
       style="fill:#cbbb59;fill-rule:evenodd;stroke:none;stroke-width:1px;stroke-linecap:butt;stroke-linejoin:miter;stroke-opacity:1;fill-opacity:1"
       d="m 110,932.36218 10,0 0,10 -10,0 z"
       id="rect3520-77-8-7" />
    <path
       inkscape:connector-curvature="0"
       style="fill:#cbbb59;fill-rule:evenodd;stroke:none;stroke-width:1px;stroke-linecap:butt;stroke-linejoin:miter;stroke-opacity:1;fill-opacity:1"
       d="m 110,942.36218 10,0 0,10 -10,0 z"
       id="rect3520-77-8-3" />
    <path
       inkscape:connector-curvature="0"
       style="fill:#c8ab37;fill-rule:evenodd;stroke:none;stroke-width:1px;stroke-linecap:butt;stroke-linejoin:miter;stroke-opacity:1"
       d="m 110,952.36218 10,0 0,10 -10,0 z"
       id="rect3520-77-8-9" />
    <path
       inkscape:connector-curvature="0"
       style="fill:#c8ab37;fill-rule:evenodd;stroke:none;stroke-width:1px;stroke-linecap:butt;stroke-linejoin:miter;stroke-opacity:1"
       d="m 110,962.36218 10,0 0,10 -10,0 z"
       id="rect3520-77-8-4" />
    <path
       inkscape:connector-curvature="0"
       style="fill:#c8ab37;fill-rule:evenodd;stroke:none;stroke-width:1px;stroke-linecap:butt;stroke-linejoin:miter;stroke-opacity:1"
       d="m 120,962.36218 10,0 0,10 -10,0 z"
       id="rect3520-77-8-5" />
    <path
       inkscape:connector-curvature="0"
       style="fill:#cbbb59;fill-rule:evenodd;stroke:none;stroke-width:1px;stroke-linecap:butt;stroke-linejoin:miter;stroke-opacity:1;fill-opacity:1"
       d="m 120,952.36218 10,0 0,10 -10,0 z"
       id="rect3520-77-8-94" />
    <path
       inkscape:connector-curvature="0"
       style="fill:#c8ab37;fill-rule:evenodd;stroke:none;stroke-width:1px;stroke-linecap:butt;stroke-linejoin:miter;stroke-opacity:1"
       d="m 120,932.36218 10,0 0,10 -10,0 z"
       id="rect3520-77-8-37" />
    <path
       inkscape:connector-curvature="0"
       style="fill:#cbbb59;fill-rule:evenodd;stroke:none;stroke-width:1px;stroke-linecap:butt;stroke-linejoin:miter;stroke-opacity:1;fill-opacity:1"
       d="m 110,922.36218 10,0 0,10 -10,0 z"
       id="rect3520-77-8-2" />
    <path
       inkscape:connector-curvature="0"
       style="fill:#cbbb59;fill-rule:evenodd;stroke:none;stroke-width:1px;stroke-linecap:butt;stroke-linejoin:miter;stroke-opacity:1;fill-opacity:1"
       d="m 110,912.36218 10,0 0,10 -10,0 z"
       id="rect3520-77-8-96" />
    <path
       inkscape:connector-curvature="0"
       style="fill:#cbbb59;fill-rule:evenodd;stroke:none;stroke-width:1px;stroke-linecap:butt;stroke-linejoin:miter;stroke-opacity:1;fill-opacity:1"
       d="m 100,912.36218 10,0 0,10 -10,0 z"
       id="rect3520-77-8-47" />
    <path
       inkscape:connector-curvature="0"
       style="fill:#c8ab37;fill-rule:evenodd;stroke:none;stroke-width:1px;stroke-linecap:butt;stroke-linejoin:miter;stroke-opacity:1"
       d="m 100,922.36218 10,0 0,10 -10,0 z"
       id="rect3520-77-8-43" />
    <path
       inkscape:connector-curvature="0"
       style="fill:#c8ab37;fill-rule:evenodd;stroke:none;stroke-width:1px;stroke-linecap:butt;stroke-linejoin:miter;stroke-opacity:1"
       d="m 90,922.36218 10,0 0,10 -10,0 z"
       id="rect3520-77-8-14" />
    <path
       inkscape:connector-curvature="0"
       style="fill:#c8ab37;fill-rule:evenodd;stroke:none;stroke-width:1px;stroke-linecap:butt;stroke-linejoin:miter;stroke-opacity:1"
       d="m 90,932.36218 10,0 0,10 -10,0 z"
       id="rect3520-77-8-16" />
    <path
       inkscape:connector-curvature="0"
       style="fill:#c8ab37;fill-rule:evenodd;stroke:none;stroke-width:1px;stroke-linecap:butt;stroke-linejoin:miter;stroke-opacity:1"
       d="m 90,942.36218 10,0 0,10 -10,0 z"
       id="rect3520-77-8-8" />
    <path
       inkscape:connector-curvature="0"
       style="fill:#c8ab37;fill-rule:evenodd;stroke:none;stroke-width:1px;stroke-linecap:butt;stroke-linejoin:miter;stroke-opacity:1"
       d="m 90,952.36218 10,0 0,10 -10,0 z"
       id="rect3520-77-8-24" />
    <path
       inkscape:connector-curvature="0"
       style="fill:#c8ab37;fill-rule:evenodd;stroke:none;stroke-width:1px;stroke-linecap:butt;stroke-linejoin:miter;stroke-opacity:1"
       d="m 100,962.36218 10,0 0,10 -10,0 z"
       id="rect3520-77-8-53" />
    <path
       inkscape:connector-curvature="0"
       style="fill:#c8ab37;fill-rule:evenodd;stroke:none;stroke-width:1px;stroke-linecap:butt;stroke-linejoin:miter;stroke-opacity:1"
       d="m 100,952.36218 10,0 0,10 -10,0 z"
       id="rect3520-77-8-0" />
    <path
       inkscape:connector-curvature="0"
       style="fill:#c8ab37;fill-rule:evenodd;stroke:none;stroke-width:1px;stroke-linecap:butt;stroke-linejoin:miter;stroke-opacity:1"
       d="m 100,942.36218 10,0 0,10 -10,0 z"
       id="rect3520-77-8-03" />
    <path
       inkscape:connector-curvature="0"
       style="fill:#aa8800;fill-rule:evenodd;stroke:none;stroke-width:1px;stroke-linecap:butt;stroke-linejoin:miter;stroke-opacity:1"
       d="m 80,962.36218 10,0 0,10 -10,0 z"
       id="rect3520-1-3" />
    <path
       inkscape:connector-curvature="0"
       style="fill:#aa8800;fill-rule:evenodd;stroke:none;stroke-width:1px;stroke-linecap:butt;stroke-linejoin:miter;stroke-opacity:1"
       d="m 130,1002.3622 10,0 0,10 -10,0 z"
       id="rect3520-1-70" />
    <path
       inkscape:connector-curvature="0"
       style="fill:#aa8800;fill-rule:evenodd;stroke:none;stroke-width:1px;stroke-linecap:butt;stroke-linejoin:miter;stroke-opacity:1"
       d="m 130,992.36218 10,0 0,10.00002 -10,0 z"
       id="rect3520-1-40" />
    <path
       inkscape:connector-curvature="0"
       style="fill:#aa8800;fill-rule:evenodd;stroke:none;stroke-width:1px;stroke-linecap:butt;stroke-linejoin:miter;stroke-opacity:1"
       d="m 130,982.36218 10,0 0,10 -10,0 z"
       id="rect3520-1-0" />
    <path
       inkscape:connector-curvature="0"
       style="fill:#aa8800;fill-rule:evenodd;stroke:none;stroke-width:1px;stroke-linecap:butt;stroke-linejoin:miter;stroke-opacity:1"
       d="m 130,972.36218 10,0 0,10 -10,0 z"
       id="rect3520-1-93" />
    <path
       inkscape:connector-curvature="0"
       style="fill:#c8ab37;fill-rule:evenodd;stroke:none;stroke-width:1px;stroke-linecap:butt;stroke-linejoin:miter;stroke-opacity:1"
       d="m 90,962.36218 10,0 0,10 -10,0 z"
       id="rect3520-77-8-4-0" />
    <path
       inkscape:connector-curvature="0"
       style="fill:#99822b;fill-rule:evenodd;stroke:none;stroke-width:1px;stroke-linecap:butt;stroke-linejoin:miter;stroke-opacity:1;fill-opacity:1"
       d="m 90,972.36218 10,0 0,10 -10,0 z"
       id="rect3520-77-8-4-1" />
    <path
       inkscape:connector-curvature="0"
       style="fill:#c8ab37;fill-rule:evenodd;stroke:none;stroke-width:1px;stroke-linecap:butt;stroke-linejoin:miter;stroke-opacity:1"
       d="m 100,972.36218 10,0 0,10 -10,0 z"
       id="rect3520-77-8-4-3" />
    <path
       inkscape:connector-curvature="0"
       style="fill:#c8ab37;fill-rule:evenodd;stroke:none;stroke-width:1px;stroke-linecap:butt;stroke-linejoin:miter;stroke-opacity:1"
       d="m 110,972.36218 10,0 0,10 -10,0 z"
       id="rect3520-77-8-4-08" />
    <path
       inkscape:connector-curvature="0"
       style="fill:#c8ab37;fill-rule:evenodd;stroke:none;stroke-width:1px;stroke-linecap:butt;stroke-linejoin:miter;stroke-opacity:1"
       d="m 120,972.36218 10,0 0,10 -10,0 z"
       id="rect3520-77-8-4-6" />
    <path
       inkscape:connector-curvature="0"
       style="fill:#c8ab37;fill-rule:evenodd;stroke:none;stroke-width:1px;stroke-linecap:butt;stroke-linejoin:miter;stroke-opacity:1"
       d="m 120,982.36218 10,0 0,10 -10,0 z"
       id="rect3520-77-8-4-2" />
    <path
       inkscape:connector-curvature="0"
       style="fill:#c8ab37;fill-rule:evenodd;stroke:none;stroke-width:1px;stroke-linecap:butt;stroke-linejoin:miter;stroke-opacity:1"
       d="m 110,982.36218 10,0 0,10 -10,0 z"
       id="rect3520-77-8-4-7" />
    <path
       inkscape:connector-curvature="0"
       style="fill:#99822b;fill-opacity:1;fill-rule:evenodd;stroke:none;stroke-width:1px;stroke-linecap:butt;stroke-linejoin:miter;stroke-opacity:1"
       d="m 100,982.36218 10,0 0,10 -10,0 z"
       id="rect3520-77-8-4-8" />
    <path
       inkscape:connector-curvature="0"
       style="fill:#99822b;fill-rule:evenodd;stroke:none;stroke-width:1px;stroke-linecap:butt;stroke-linejoin:miter;stroke-opacity:1;fill-opacity:1"
       d="m 100,992.36218 10,0 0,10.00002 -10,0 z"
       id="rect3520-77-8-4-77" />
    <path
       inkscape:connector-curvature="0"
       style="fill:#99822b;fill-rule:evenodd;stroke:none;stroke-width:1px;stroke-linecap:butt;stroke-linejoin:miter;stroke-opacity:1;fill-opacity:1"
       d="m 110,1002.3622 10,0 0,10 -10,0 z"
       id="rect3520-77-8-4-4" />
    <path
       inkscape:connector-curvature="0"
       style="fill:#99822b;fill-rule:evenodd;stroke:none;stroke-width:1px;stroke-linecap:butt;stroke-linejoin:miter;stroke-opacity:1;fill-opacity:1"
       d="m 120,1002.3622 10,0 0,10 -10,0 z"
       id="rect3520-77-8-4-18" />
    <path
       inkscape:connector-curvature="0"
       style="fill:#c8ab37;fill-rule:evenodd;stroke:none;stroke-width:1px;stroke-linecap:butt;stroke-linejoin:miter;stroke-opacity:1"
       d="m 120,992.36218 10,0 0,10.00002 -10,0 z"
       id="rect3520-77-8-4-9" />
    <path
       inkscape:connector-curvature="0"
       style="fill:#c8ab37;fill-rule:evenodd;stroke:none;stroke-width:1px;stroke-linecap:butt;stroke-linejoin:miter;stroke-opacity:1"
       d="m 110,992.36218 10,0 0,10.00002 -10,0 z"
       id="rect3520-77-8-4-16" />
    <path
       inkscape:connector-curvature="0"
       style="fill:#c49f00;fill-rule:evenodd;stroke:none;stroke-width:1px;stroke-linecap:butt;stroke-linejoin:miter;stroke-opacity:1;fill-opacity:1"
       d="m 120,932.36218 10,0 0,10 -10,0 z"
       id="rect3520-77" />
    <path
       inkscape:connector-curvature="0"
       style="fill:#c49f00;fill-rule:evenodd;stroke:none;stroke-width:1px;stroke-linecap:butt;stroke-linejoin:miter;stroke-opacity:1;fill-opacity:1"
       d="m 120,942.36218 10,0 0,10 -10,0 z"
       id="rect3520-184" />
    <path
       inkscape:connector-curvature="0"
       style="fill:#c49f00;fill-rule:evenodd;stroke:none;stroke-width:1px;stroke-linecap:butt;stroke-linejoin:miter;stroke-opacity:1;fill-opacity:1"
       d="m 120,922.36218 10,0 0,10 -10,0 z"
       id="rect3520-74" />
    <path
       inkscape:connector-curvature="0"
       style="fill:#aa8800;fill-rule:evenodd;stroke:none;stroke-width:1px;stroke-linecap:butt;stroke-linejoin:miter;stroke-opacity:1"
       d="m 80,972.36218 10,0 0,10 -10,0 z"
       id="rect3520-92-8" />
    <path
       inkscape:connector-curvature="0"
       style="fill:#aa8800;fill-rule:evenodd;stroke:none;stroke-width:1px;stroke-linecap:butt;stroke-linejoin:miter;stroke-opacity:1"
       d="m 90,982.36218 10,0 0,10 -10,0 z"
       id="rect3520-92-6" />
    <path
       inkscape:connector-curvature="0"
       style="fill:#aa8800;fill-rule:evenodd;stroke:none;stroke-width:1px;stroke-linecap:butt;stroke-linejoin:miter;stroke-opacity:1"
       d="m 90,992.36218 10,0 0,10.00002 -10,0 z"
       id="rect3520-92-7" />
    <path
       inkscape:connector-curvature="0"
       style="fill:#aa8800;fill-rule:evenodd;stroke:none;stroke-width:1px;stroke-linecap:butt;stroke-linejoin:miter;stroke-opacity:1"
       d="m 90,1002.3622 10,0 0,10 -10,0 z"
       id="rect3520-92-1" />
    <path
       inkscape:connector-curvature="0"
       style="fill:#aa8800;fill-rule:evenodd;stroke:none;stroke-width:1px;stroke-linecap:butt;stroke-linejoin:miter;stroke-opacity:1"
       d="m 100,1002.3622 10,0 0,10 -10,0 z"
       id="rect3520-92-62" />
    <path
       inkscape:connector-curvature="0"
       style="fill:#aa8800;fill-rule:evenodd;stroke:none;stroke-width:1px;stroke-linecap:butt;stroke-linejoin:miter;stroke-opacity:1"
       d="m 110,1012.3622 10,0 0,10 -10,0 z"
       id="rect3520-92-0" />
    <path
       inkscape:connector-curvature="0"
       style="fill:#aa8800;fill-rule:evenodd;stroke:none;stroke-width:1px;stroke-linecap:butt;stroke-linejoin:miter;stroke-opacity:1"
       d="m 120,1012.3622 10,0 0,10 -10,0 z"
       id="rect3520-92-5" />
  </g>
</svg>
